# xmcd CD Database Entry
#
# Track frame offsets:
# 150
# 16837
# 29525
# 45430
# 63187
# 75305
# 87617
# 103855
# 115082
# 131340
# 141590
# 154607
# 165865
# 181632
# 192922
# 205537
# 219017
# 230595
# 242445
# 252470
# 264775
# 274860
# 284812
# 296392
# 312700
#
# Disc length: 4373 seconds
#
# Revision: 1
# Processed by: cddbd v1.4PL0 Copyright (c) Steve Scherf et al.
# Submitted via: tcd 2.0b
#
DISCID=55111319
DTITLE=Bob Marley and The Wailers - Roots of a Legend (Volume 1)
DYEAR=1900
DGENRE=
TTITLE0=Duppy Conqueror
TTITLE1=Try Me
TTITLE2=Keep on Skanking
TTITLE3=Small Axe
TTITLE4=Kaya
TTITLE5=Brain Washing
TTITLE6=Put it On
TTITLE7=Fussing and Fighting
TTITLE8=Mr Brown
TTITLE9=No Sympathy
TTITLE10=Lively up Yourself
TTITLE11=Fussing and Fighting (Rhythm)
TTITLE12=More Axe
TTITLE13=Corner Stone
TTITLE14=Riding High
TTITLE15=Trench town Rock
TTITLE16=Turn me Loose
TTITLE17=Its Alright
TTITLE18=Sun is Shining
TTITLE19=Caution
TTITLE20=Stand Alone
TTITLE21=Stand Alone (Rhythm)
TTITLE22=400 Years
TTITLE23=All in One
TTITLE24=Duppy Conqueror (Rhythm)
EXTD=
EXTT0=
EXTT1=
EXTT2=
EXTT3=
EXTT4=
EXTT5=
EXTT6=
EXTT7=
EXTT8=
EXTT9=
EXTT10=
EXTT11=
EXTT12=
EXTT13=
EXTT14=
EXTT15=
EXTT16=
EXTT17=
EXTT18=
EXTT19=
EXTT20=
EXTT21=
EXTT22=
EXTT23=
EXTT24=
PLAYORDER=
